<?xml version="1.0" standalone="no"?>
<!DOCTYPE svg PUBLIC "-//W3C//DTD SVG 20010904//EN"
 "http://www.w3.org/TR/2001/REC-SVG-20010904/DTD/svg10.dtd">
<svg version="1.0" xmlns="http://www.w3.org/2000/svg"
 width="700.000000pt" height="151.000000pt" viewBox="0 0 700.000000 151.000000"
 preserveAspectRatio="xMidYMid meet">

<g transform="translate(0.000000,151.000000) scale(0.100000,-0.100000)"
fill="#000000" stroke="none">
<path d="M5923 1399 l-62 -100 97 -63 c53 -34 207 -132 341 -217 l244 -154
-3271 -3 -3272 -2 0 -120 0 -120 3250 -2 3250 -3 -268 -170 c-147 -93 -291
-184 -319 -202 l-53 -33 55 -88 c31 -48 59 -93 64 -101 6 -10 84 34 337 195
584 369 641 404 663 404 21 0 22 3 19 121 l-3 121 -300 190 c-165 104 -391
248 -503 319 -112 71 -204 129 -205 129 -1 -1 -30 -46 -64 -101z"/>
</g>
</svg>
